<?xml version="1.0" encoding="utf-8"?>
<!-- Generator: Adobe Illustrator 19.1.0, SVG Export Plug-In . SVG Version: 6.00 Build 0)  -->
<svg version="1.1" id="Logo" xmlns="http://www.w3.org/2000/svg" xmlns:xlink="http://www.w3.org/1999/xlink" x="0px" y="0px"
	 viewBox="0 0 558 120" style="enable-background:new 0 0 558 120;" xml:space="preserve">
<path style="fill:#FFFFFF" d="M138.7,43.7c8.3-2.6,14.1-8,14.1-14.4c0-8.8-11.1-16-24.8-16c-9.3,0-17.4,3.3-21.6,8.1l-20.4-14l-20.4,14
	c-4.3-4.8-12.4-8.1-21.6-8.1c-13.7,0-24.8,7.1-24.8,16c0,6.3,5.7,11.8,14,14.4L10,59.5l20.4,14c4.3-4.8,12.3-8,21.6-8
	c13.7,0,24.8,7.1,24.8,16c0,6.3-5.7,11.7-13.9,14.3l9.8,6.7l13.2,9l13.4-9.2l9.6-6.6c-8.2-2.6-13.9-8-13.9-14.3
	c0-8.8,11.1-16,24.8-16c9.2,0,17.3,3.2,21.6,8l20.4-14L138.7,43.7z M85.8,96.6c-1.4,0-3.9-1.5-3.9-3.5c0-2,2.8-4.9,4.1-4.9
	c1.4,0,3.9,2.8,3.9,4.8C89.9,94.9,87.2,96.6,85.8,96.6z"/>
<path style="fill:#FFFFFF" d="M68.8,78c0,3.3-2.7,6.1-6.1,6.1c-3.3,0-6-2.7-6-6.1c0-3.3,2.7-6,6-6C66.1,71.9,68.8,74.6,68.8,78z"/>
<path style="fill:#FFFFFF" d="M115.1,78c0,3.3-2.7,6.1-6,6.1c-3.3,0-6.1-2.7-6.1-6.1c0-3.3,2.7-6,6.1-6C112.4,71.9,115.1,74.6,115.1,78z"/>
<g>
	<path style="fill:#FFFFFF" d="M215.7,65.5c2-2.1,4-4.4,6.1-6.7c2.1-2.3,4.2-4.6,6.1-6.9s3.8-4.5,5.6-6.5c1.8-2.1,3.3-3.8,4.5-5.4H262
		c-4.8,5.5-9.4,10.7-14,15.7c-4.5,5-9.5,10.1-14.9,15.4c2.7,2.4,5.5,5.3,8.4,8.7c2.9,3.4,5.7,6.9,8.4,10.5c2.7,3.6,5.2,7.2,7.4,10.8
		c2.3,3.6,4.1,6.9,5.7,9.9h-23.1c-1.4-2.3-3.1-4.9-4.9-7.8c-1.8-2.8-3.8-5.7-5.9-8.5c-2.1-2.8-4.2-5.6-6.5-8.2
		c-2.3-2.6-4.6-4.8-6.8-6.6V111h-20.1V9.5l20.1-3.2V65.5z"/>
	<path style="fill:#FFFFFF" d="M327.9,108.5c-3.4,1-7.8,1.9-13.2,2.8c-5.4,0.9-11.1,1.3-17,1.3c-6,0-11-0.8-15.1-2.4c-4-1.6-7.2-3.9-9.5-6.8
		c-2.3-2.9-4-6.4-5-10.5c-1-4.1-1.5-8.5-1.5-13.4V40h20.1v37.1c0,6.5,0.9,11.2,2.6,14c1.7,2.9,4.9,4.3,9.6,4.3c1.4,0,3-0.1,4.6-0.2
		c1.6-0.1,3.1-0.3,4.3-0.5V40h20.1V108.5z"/>
	<g>
		<path style="fill:#FFFFFF" d="M393.6,94.2h-32.1c2.6-3.8,5.5-7.7,8.7-11.7c3.2-4,6.4-7.9,9.5-11.6c3.2-3.7,6.1-7.1,8.9-10.1
			c1.4-1.5,2.6-2.9,3.6-4.1h0V40h-53.5v16.7h30.2c-2.4,2.9-5.1,6.1-8,9.7c-2.9,3.6-5.8,7.2-8.7,11c-2.9,3.8-5.7,7.5-8.4,11.3
			c-2.7,3.7-4.9,7.2-6.8,10.5V111h53.5V99.1C391.5,97.5,392.5,95.9,393.6,94.2z"/>
		<path style="fill:#FFFFFF" d="M414.9,94.2c2.6-3.8,5.5-7.7,8.7-11.7c3.2-4,6.4-7.9,9.5-11.6c3.2-3.7,6.1-7.1,8.9-10.1
			c2.8-3.1,4.9-5.5,6.6-7.3V40h-53.5h-2.9v16.7h0h30.2c-2.4,2.9-5.1,6.1-8,9.7c-2.9,3.6-5.8,7.2-8.7,11c-2.9,3.8-5.7,7.5-8.4,11.3
			c-1.4,1.9-2.6,3.8-3.8,5.6c-1.1,1.7-2.1,3.3-3,4.9V111h5.2h53.5V94.2H414.9z"/>
	</g>
	<polygon style="fill:#FFFFFF" points="459.7,9.5 459.7,111 479.8,111 479.8,6.2 	"/>
	<path style="fill:#FFFFFF" d="M484.9,76c0-6.3,1-11.8,2.9-16.5c1.9-4.7,4.5-8.7,7.6-11.8c3.2-3.1,6.8-5.5,10.9-7.2c4.1-1.6,8.3-2.4,12.6-2.4
		c10.1,0,18,3.1,23.9,9.2c5.8,6.2,8.8,15.2,8.8,27.2c0,1.2,0,2.5-0.1,3.8c-0.1,1.4-0.2,2.6-0.3,3.7h-45.6c0.4,4.1,2.4,7.4,5.8,9.9
		c3.4,2.4,8,3.6,13.8,3.6c3.7,0,7.3-0.3,10.9-1c3.6-0.7,6.5-1.5,8.7-2.5l2.7,16.3c-1.1,0.5-2.5,1.1-4.3,1.6c-1.8,0.5-3.8,1-6,1.4
		c-2.2,0.4-4.6,0.7-7.1,1c-2.5,0.3-5,0.4-7.6,0.4c-6.4,0-11.9-0.9-16.7-2.8c-4.7-1.9-8.6-4.5-11.7-7.8c-3.1-3.3-5.4-7.2-6.9-11.7
		C485.7,86.1,484.9,81.2,484.9,76z M532.2,68.3c-0.1-1.7-0.4-3.4-0.9-5c-0.5-1.6-1.3-3.1-2.3-4.3c-1-1.3-2.3-2.3-3.9-3.1
		c-1.6-0.8-3.5-1.2-5.9-1.2c-2.3,0-4.2,0.4-5.8,1.1c-1.6,0.8-3,1.8-4,3c-1.1,1.3-1.9,2.7-2.5,4.4c-0.6,1.7-1,3.4-1.3,5.1H532.2z"/>
</g>
</svg>
