<?xml version="1.0" encoding="utf-8"?>
<!-- Generator: Adobe Illustrator 19.1.0, SVG Export Plug-In . SVG Version: 6.00 Build 0)  -->
<svg version="1.1" id="Logo" xmlns="http://www.w3.org/2000/svg" xmlns:xlink="http://www.w3.org/1999/xlink" x="0px" y="0px"
	 viewBox="52 166.5 745.3 120" style="enable-background:new 52 166.5 745.3 120;" xml:space="preserve">
<style type="text/css">
	.st0{fill:#45B29D;}
	.st1{fill:#00757F;}
	.st2{fill:none;}
	.st3{fill:#004B52;}
	.st4{display:none;}
</style>
<g id="Calque_1_1_">
	<g>
		<g>
			<path class="st0" d="M681.5,218.2c-0.1,1.5-0.2,3.1-0.4,4.5c-0.1,1.1-0.4,2.3-0.7,3.4c-0.2,0.7-0.1,1.3-0.3,1.9l-1,4.1
				c-0.3,1.2-0.8,2.3-1.2,3.4c-0.6,1.3-1.1,2.7-1.5,3.9c-0.3,0.8-0.4,1.4-0.8,2.2c-0.2,0.6-0.7,1.1-1,1.7c-0.7,0.9-1.3,1.7-1.7,2.8
				c-0.2,0.9-1,1.7-1.7,2.3c-0.9,1.2-1.9,2.2-2.7,3.4c-0.6,1.1-1.7,1.8-2.3,2.7c-0.7,1.1-1.7,1.8-2.5,2.4c-1.7,1.1-3.3,2.1-4.9,3
				c-2.1,1-3.8,0.1-5.4-1.1c-0.8-0.6-1.7-1.1-2.5-1.4c-1.1-0.6-2-1.4-2.9-2.2c-0.4-0.4-1-0.9-1.3-1.4c-0.9-1.3-0.4-2.8,0.1-4
				c0.2-0.4,0.4-0.9,0.8-1.3c0.1-0.2,0.3-0.3,0.4-0.6c0.2,0.3,0.4,0.7,0.4,0.9c0,0.3-0.3,0.7-0.4,1v0.4c0.1,0,0.3-0.1,0.4-0.2
				l0.2-0.2c0.1,0.2,0.4,0.4,0.4,0.6c-0.1,0.9,0.3,1.5,0.8,2.2c0.2,0.2,0.7,0.4,1,0.6c0.1,0.2,0.2,0.3,0.4,0.4
				c0.3,0.2,0.7,0.3,1.1,0.6l0.2-0.6c0.2,0.6,0.7,0.6,1.2,0.2l2.4-1.3l0.7-0.7l1.8-1.3c0.2,0,0.3-0.1,0.6-0.2v-0.2l1.2-1.1l0.3-0.6
				c0.8-0.8,1.7-1.7,2.3-2.5c0.4-0.4,0.7-1.1,1-1.5c2.5-3.6,4.7-7.4,6.2-11.5c0.9-2.5,1.7-5.1,2.4-7.6c0.3-1.1,0.3-2.3,0.4-3.4
				c0.1-0.4,0.1-1,0.2-1.4c0.6-1.2,0.3-2.4,0.4-3.7c0-0.7,0.1-1.4,0-2.1c-0.1-1.2-0.3-2.5-0.6-3.6c-0.1-0.8-0.6-0.8-1.2-0.3
				c-1.8,1.3-3.5,2.5-5.1,3.9c-3.3,2.9-5.8,6.4-8,10.2c-1.9,3.1-3.6,6.1-5.3,9.3l-2.7,5.3c-0.4,1.1-1.1,2.1-1.7,3.2l-1,2.1h0.1
				c-0.1,0-0.1,0-0.1,0.1l0.1,0.1H648c-0.3,0.9-0.7,1.9-1.1,2.9l-2.3,5.4c-0.1,0.1-0.1,0.2-0.1,0.3c0.3,1.8-0.8,3.1-1.1,4.7
				c-0.1,0.6-0.3,1.1-0.6,1.8c-0.1,0.2-0.6,0.4-0.9,0.6c-0.9,0.1-1.5-0.3-2.2-1c-0.8-0.8-1.9-1.1-2.8-1.7c-0.4-0.2-0.8-0.4-1.1-0.8
				c-0.7-0.8-1.3-1.5-1.9-2.4c-0.1-0.1,0-0.4,0.1-0.6c0.2-0.4,0.7-0.8,0.8-1.2c0.6-1.7,1-3.4,1.4-5c0.2-0.6,0.6-1.1,0.8-1.7
				c0.1-0.7,0.1-1.3,0.2-2c0.1-0.3,0.3-0.7,0.4-1.1c0.2-1,0.4-2,0.8-3c1.1-2.4,2.2-4.8,3.2-7.2c0.3-0.9,1.1-1.8,1.3-2.7
				c0.2-1.4,1-2.8,1.4-4c0.6-1.7,1.3-3.2,2-4.7c0.4-1.1,0.8-2.2,1.1-3.2l0.3-0.9c0.6-1.3,1-2.7,1.5-3.8c0.1-0.4,0.4-0.8,0.6-1.1
				c0.3-0.9,0.7-1.8,0.9-2.7c0.6-1.3,1-2.7,1.5-3.9c0-0.2,0.1-0.4,0.2-0.6c1-0.7,0.9-1.9,1.2-2.9c0.2-1.1,0.8-2.3,1.3-3.4
				c0.3-0.7,6.1-13.2,6.1-14.8c-0.1-0.9,0.6-1.7,0.7-2.5c0.3-2.2,1.4-4.1,2.2-6.2c0.1-0.3,0.3-0.7,0.4-1.1c0.4-0.8,1.1-1.2,2-1.1
				l1.9,0.3c1.1,0.4,2.2,0.8,3.2,1.2c0.8,0.4,1.3,1.1,1.7,1.9c0.8,1.5,0.2,2.8-0.3,4l-6.2,13.7v0.1c-1.2,1.4-1.8,3.1-2.5,4.5
				c-0.7,1.2-1.1,2.4-1.7,3.6l-1.1,2.4c-0.6,1.1-1.2,2.1-1.3,3.2c-0.1,1-0.6,1.9-1,2.8v0.3l0.3-0.2c1.1-1.1,2.1-2.2,3.2-3.2
				c2.2-1.8,4.5-3.2,7.6-3.3c0.7,0,1.4-0.1,2.2-0.1c0.1,0,0.3,0.2,0.3,0.3s-0.1,0.3-0.3,0.4c-0.2,0-0.6,0-0.9,0.1
				c-0.2,0-0.4,0.3-0.7,0.4c0.2,0.1,0.6,0.3,0.8,0.3c0.4,0,0.9-0.1,1.2-0.1c0.7-0.1,1.2-0.2,1.9-0.2c0.9-0.1,1.8,0,2.2,0.9l0.3,0.2
				c1.5,1,2.3,2.5,3.1,4.1C681.6,213.3,681.7,215.7,681.5,218.2z M643.9,241.5l-0.3-0.3l-0.4,0.7c0,0.1,0.2,0.2,0.2,0.4
				C643.6,242,643.7,241.8,643.9,241.5z M650,228.2c0-0.2-0.2-0.3-0.2-0.6c-0.2,0.1-0.4,0.2-0.6,0.3c-0.1,0.6-0.3,1-0.3,1.4
				c0,0.6,0,0.7-0.7,0.6c-0.3,0.7-0.9,1.3-1.1,2c-0.2,0.8-0.8,1.2-1.1,1.9c-0.1,0.4-0.4,0.9-0.3,1.2c0.1,0.4,0.3,0.4,0.1,0.8
				c-0.1,0.3-0.3,0.7-0.6,1L644,240c-0.1,0.2,0.1,0.6,0.2,0.8c0.2-0.1,0.4-0.3,0.7-0.6c0.6-1,1.1-2.1,1.7-3.2
				c0.2-0.8,0.6-1.5,0.9-2.3c0-0.2,0.2-0.3,0.3-0.6l0.7-1.3c0.2-0.7,0.4-1.4,0.8-2C649.6,230.1,649.9,229.2,650,228.2z M644.4,243.2
				c-0.1,0.1-0.1,0.2-0.1,0.3l0.3-0.4C644.6,243.2,644.5,243.2,644.4,243.2z M645.1,227.9c0.1-0.1,0.2-0.2,0.3-0.2l-0.1-0.1
				C645.2,227.7,645.1,227.8,645.1,227.9z M647.6,221.3L647.6,221.3l0.4-0.2c0,0-0.1-0.1-0.2-0.1L647.6,221.3z M649.6,224.6l0.2,0.2
				c0-0.1,0.1-0.2,0.2-0.4c-0.1-0.1-0.2-0.1-0.2-0.2C649.7,224.2,649.6,224.4,649.6,224.6z M650.1,231.3c-0.1-0.1-0.2-0.2-0.3-0.2
				c0,0-0.1,0.1,0,0.1c0,0,0,0.1,0.1,0.1C649.9,231.4,650,231.3,650.1,231.3z M651.3,224.7c0,0.1-0.1,0.1-0.2,0.2
				c-0.3,0.7-0.7,1.4-1.1,2.2l0.4,0.7l0.4,0.3c0.1-0.2,0.2-0.4,0.2-0.7V226c0-0.4,0.2-0.8,0.2-1.2
				C651.4,224.9,651.3,224.8,651.3,224.7z M651.2,232.1l-0.1,0.2v0.1C651.2,232.3,651.2,232.2,651.2,232.1z M652,220.9
				c0.4-0.7,0.9-1.4,1.2-2.1c0.3-0.4,0.8-0.8,1-1.2c0.4-0.7,0.9-1.4,1.2-2.1c0.1-0.3,0.1-0.8,0.2-1.1c0.1-0.4,0-0.9,0.6-1
				c0.2,0,0.3-0.6,0.4-0.9h0.1c0-0.2,0-0.4-0.1-0.8c0-0.2,0-0.8-0.2-0.8c-0.3-0.1-0.9-0.3-1.1,0.3c-0.1,0.4-0.3,0.9-0.6,1.3
				c-0.1,0.2-0.3,0.6-0.6,0.8c-0.1,0.1-0.3,0.1-0.4,0.2c0.1,0,0.2,0.1,0.3,0.1c0.1,0.1,0.2,0.2,0.2,0.3c0,0.2-0.1,0.4-0.1,0.6
				c-0.6-0.6-0.8-0.6-1.1,0.1c-0.1,0.3-0.1,0.9,0,1.3c0.2,0.8,0,1.8-0.8,2.2s-1.3,1.9-0.9,2.5C651.6,221.3,651.8,221.3,652,220.9z
				 M652.1,231.1l-0.2-0.2c-0.1,0.1-0.1,0.1-0.1,0.2c0,0,0,0.1,0.1,0.1C651.9,231.2,652,231.1,652.1,231.1z M652,224.8
				c0,0.2,0,0.4,0.1,0.8l0.3-0.3L652,224.8z M670.3,206.7h-0.7c-1.1,0.6-2.3,1-3.4,1.4c0-0.1,0-0.1,0.1-0.2c0-0.2,0.1-0.3,0.2-0.6
				c-0.1,0.1-0.3,0.1-0.4,0.2c-1.4,1-3,1.9-4.2,3c-1.2,1-2.2,2.2-3.3,3.3c-1.1,1.1-1.4,2.5-2,3.9c-0.2,0.8-0.7,1.7-1,2.4
				c0,0.2-0.2,0.4-0.3,0.8c-0.2,0.7-0.3,1.4-0.7,2.2c-0.4,1.1-1,2.3-1.4,3.5c-0.4,1.1-0.8,2.2-1.2,3.3c0,0.1,0,0.2,0.1,0.3
				c0.1,0,0.2-0.1,0.3-0.1c0.2-0.6,0.4-1.1,0.8-1.5l2.4-3.6c0.6-0.8,1-1.7,1.5-2.4c0.4-0.8,0.7-1.8,1.3-2.4c0.1-0.1,0.1-0.2,0.1-0.3
				h0.4c0.4-0.8,0.8-1.5,1.2-2.2c1-1.4,1.9-2.8,3-4c0.8-0.9,1.7-1.7,2.4-2.5c1.3-1.4,2.7-2.8,4.2-3.8
				C669.9,207.2,670.2,207,670.3,206.7z M652.4,224c0-0.1,0.1-0.1,0.1-0.2l-0.4-0.1L652.4,224z M654.4,214.8c-0.1,0-0.1-0.1-0.2-0.1
				L654.4,214.8z M654.8,214.9l-0.3-0.1L654.8,214.9L654.8,214.9z M655.3,210.4c0,0.1,0.2,0.2,0.4,0.2c0.1,0.1,0.3,0.1,0.4,0.1
				c0.2,0,0.4,0.6,0.7,0c0.2-0.3,0.6-0.4,0.7-0.7c0.3-1,0.7-2,0.9-2.9c0.1-0.3-0.1-0.8-0.1-1.1c0.1-0.1,0.3-0.2,0.4-0.4l-0.4-0.1
				v-0.1c-0.2-0.4-0.4-0.1-0.6,0.1c-0.3,0.3-0.4,0.9-0.7,1.3c-0.2,0.3-0.4,0.9-0.8,1.1c-0.6,0.1-0.9,0.4-1,1L655.3,210.4
				L655.3,210.4z M656.2,225.7L656.2,225.7c-0.2,0.1-0.4,0.3-0.5,0.7v0.1C655.9,226.1,656.1,225.9,656.2,225.7z M656,209.7h-0.2
				c0-0.2,0.1-0.3,0.1-0.4c0.1-0.2,0.1-0.3,0.1-0.4c0.1,0.1,0.3,0.2,0.2,0.3C656.2,209.4,656.1,209.5,656,209.7z M655.9,214.6
				c0.1,0.1,0.2,0.1,0.3,0.1c0-0.1,0.1-0.2,0.1-0.3L655.9,214.6z M656.1,254.3c0.4-0.2,0.8-0.6,1.1-0.9l-1.2,0.7L656.1,254.3
				C656,254.3,656.1,254.4,656.1,254.3z M673.7,239.6c0-0.1-0.2-0.2-0.2-0.1c-0.1,0-0.2,0.1-0.3,0.3c0-0.2-0.2-0.4-0.1-0.7
				c0-0.2,0.1-0.4,0.1-0.8c0,0,0-0.2-0.1-0.2c0-0.1-0.2-0.1-0.3-0.1c0.1-0.2,0.1-0.6,0.2-0.8c0-0.1,0.3-0.1,0.4-0.1
				c0.6,0.6,0.4-0.1,0.6-0.3c-0.3-0.4-0.4-0.9-0.1-1.4c0.6-1.3,0.9-2.7,1.3-3.9c0.1-0.3,0.1-0.9,0.3-1c0.6-0.3,0.3-1.1,0.2-1.2
				c-0.3-0.6,0-1,0.2-1.4l0.1-0.8v-0.6c0.1-0.3,0.2-0.7,0.2-1c0-0.1-0.2-0.2-0.3-0.3c0,0.1-0.1,0.2-0.2,0.3
				c-0.1,0.7-0.3,1.3-0.6,2.1c-0.8,2.1-1.3,4.2-2.2,6.3c-0.8,2-1.8,3.9-2.7,5.9c-0.6,1.1-1.2,2.1-1.8,3.2c-0.4,0.8-1,1.5-1.5,2.4
				l-0.4,0.1c-0.6-0.4-0.3,0-0.3,0.3c-0.6,0.7-1.1,1.2-1.7,1.8v0.3c-0.3,0.3-0.7,0.6-0.9,0.9v-0.1c-0.2,0.3-0.4,0.4-0.7,0.8
				c-0.4,0.8-0.6,1.8-1.7,2c-0.2,0.1-0.6,0.4-0.8,0.7c0,0.1,0.1,0.3,0.1,0.6c-0.3,0.9-1,1.5-2,1.8c-0.6,0.1-0.6,0.3-0.4,0.8
				c-0.4,0.3-1.1,0.8-1.5,1.2c-0.1,0-0.1,0.3-0.1,0.4c0.1,0.1,0.3,0.2,0.4,0.2c0.4-0.1,0.9-0.2,1.3-0.2c1.3-0.2,2.5-0.9,3.5-1.9
				l-0.2-0.4h0.2v0.6l0.6-0.6c-0.4-0.7,0.1-1,0.4-1.3c0.1-0.3,0.6-0.4,0.9-0.7c-0.1,0.3-0.2,0.6-0.2,0.9l-0.6,0.2l0.2,0.2
				c0.1-0.2,0.2-0.3,0.3-0.4c0.9-0.2,1-0.9,1.4-1.5c-0.4-0.2-0.2-0.4,0-0.7c0.2-0.2,0.4-0.3,0.6-0.6c0.1-0.6,0.2-0.6,0.6-0.1
				c0.7,0.8,0.8-0.8,1.3-0.3V250c0-0.1-0.1-0.2-0.1-0.3c-0.4,0-0.7-0.2-0.3-0.7l0.7-1.1c0.3-0.6,0.7-0.7,1,0c0,0.1-0.1,0.1-0.1,0.2
				c0,0,0,0.1,0.1,0.1v-0.3c0.2,0.1,0.3,0.3,0.4,0.4c0-0.3,0.1-0.8,0-1.1c-0.1-0.2-0.4-0.4-0.4-0.6c0.1-0.3,0.4-0.6,0.7-0.8
				c0,0.2-0.1,0.4-0.1,0.7c0,0.1-0.1,0.2-0.1,0.2c0.3,0.1,0.6,0.3,0.9,0.3c0.1,0,0.3-0.2,0.2-0.3c0-0.2-0.2-0.4-0.3-0.7
				c0.2-0.2,0.6-0.4,0.9-0.7c0.1-0.1,0.4-0.2,0.6-0.4c0.2-0.7,0-0.9-0.9-1.1c0.2-0.4,0.6-0.9,0.7-1.3c0.1-0.3,0.3-0.8,0.2-0.9
				c-0.3-0.6-0.3-0.4-0.2-0.9c0.2-0.8,1.1-0.4,1.5-0.9c0,0.1,0.2,0.3,0.2,0.3c-0.8,0.6-0.2,1,0,1.4c-0.2,0.2-0.6,0.3-0.8,0.6v0.7
				c0.1-0.1,0.3-0.2,0.4-0.4l0.3-0.8C674,241.1,674.3,240.6,673.7,239.6z M657.1,208.1l0.2-0.3c0.1,0.1,0.1,0.1,0.1,0.2L657.1,208.1
				C657.2,208.1,657.1,208.1,657.1,208.1z M659,222.6h-0.6c0-0.2,0-0.4,0.1-0.7l-0.7,0.7c0,0.1,0.2,0.2,0.2,0.3l0.3-0.3
				c0.1,0.2,0.1,0.4,0.2,0.6C658.7,223,658.9,222.8,659,222.6z M658,206c0.1-0.1,0.2-0.3,0.3-0.6v0.1v0.6c-0.1,0.2-0.2,0.3-0.3,0.4
				V206z M658.1,252.8c0.2-0.1,0.4-0.3,0.8-0.4c0-0.1,0-0.2,0.1-0.3c-0.1,0-0.3,0.1-0.4,0.2C658.4,252.5,658.2,252.6,658.1,252.8z
				 M658.4,223.4C658.4,223.4,658.4,223.5,658.4,223.4l-0.1,0.2C658.4,223.5,658.4,223.5,658.4,223.4z M658.5,203.4
				c0,0.1,0.1,0.1,0.2,0.3c0-0.2,0.1-0.3,0.1-0.4L658.5,203.4L658.5,203.4z M659,204.1c0,0.1,0.1,0.2,0.1,0.2c0.1,0,0.2-0.1,0.3-0.1
				c0-0.1,0.1-0.1,0.1-0.2c-0.1,0-0.2-0.1-0.3,0C659.1,204,659,204.1,659,204.1z M660.3,219.7L660.3,219.7c-0.2-0.2-0.3-0.2-0.3-0.2
				c-0.1,0-0.2,0.1-0.3,0.2c0.1,0.1,0.2,0.2,0.3,0.2L660.3,219.7z M660.3,250.8c0,0,0,0.1,0.1,0.2c0-0.1,0.1-0.1,0.1-0.2H660.3
				L660.3,250.8z M661,219.9c0-0.1-0.1-0.2-0.1-0.2c-0.1,0.1-0.2,0.1-0.2,0.2c0,0,0,0.1,0.1,0.1C660.9,220,660.9,220,661,219.9z
				 M660.6,250.1c0,0,0.1,0.1,0.1,0.2l0.8-0.7c-0.1,0-0.1-0.1-0.1-0.1C661.1,249.7,660.9,249.8,660.6,250.1z M662,251.5v0.2
				c-0.1,0.1-0.2,0.2-0.3,0.2C661.7,251.8,661.8,251.7,662,251.5C661.8,251.6,662,251.6,662,251.5z M664.2,210.2L664.2,210.2
				c-0.2,0.2-0.2,0.1-0.3,0.1l0.1-0.1C664.1,210.1,664.1,210.2,664.2,210.2z M665.3,244.5c0.1-0.1,0.2-0.1,0.2-0.2v-0.1L665.3,244.5
				z M665.4,208.5c0.3-0.1,0.7-0.2,0.9-0.2l-0.8,0.4C665.5,208.7,665.5,208.6,665.4,208.5z M665.7,247.2c0.1-0.1,0.2-0.1,0.2-0.1
				S665.9,247.2,665.7,247.2c0.1,0.1,0,0.2-0.1,0.2C665.6,247.4,665.7,247.3,665.7,247.2z M666.3,208.2L666.3,208.2L666.3,208.2z
				 M666.3,246.1L666.3,246.1L666.3,246.1z M666.5,248.8C666.5,248.8,666.5,248.9,666.5,248.8h-0.2c0-0.1,0.1-0.2,0.1-0.2
				C666.5,248.6,666.5,248.7,666.5,248.8z M667.4,244.2l0.7-1c0,0,0-0.1-0.1-0.3c-0.2,0.4-0.4,0.8-0.6,1.1L667.4,244.2L667.4,244.2z
				 M667.8,249.5h-0.2C667.6,249.6,667.7,249.6,667.8,249.5L667.8,249.5z M668.2,248.4l-0.3,0.7c0.1,0,0.2,0.1,0.2,0.1
				C668.1,249,668.2,248.8,668.2,248.4L668.2,248.4z M668.7,241.8L668.7,241.8c0.2,0.1,0.3,0,0.3-0.1l-0.1-0.1
				C668.8,241.6,668.8,241.8,668.7,241.8z M669.2,241.1l0.3-0.3v-0.2c-0.1,0-0.2,0.1-0.2,0.1C669.2,240.8,669.2,241,669.2,241.1z
				 M669.4,244.6L669.4,244.6c0,0.2-0.1,0.3-0.3,0.4C669.2,244.8,669.3,244.7,669.4,244.6z M670.2,244.3c0.1,0,0.2-0.2,0.3-0.2
				c0.1,0.1,0.2,0.3,0.2,0.4l-0.4,0.7L670,245C669.7,244.6,669.7,244.4,670.2,244.3z M670.4,238.9c0-0.1,0.1-0.2,0.2-0.3
				c0,0,0-0.1-0.1-0.2C670.4,238.5,670.3,238.7,670.4,238.9C670.2,238.8,670.3,238.8,670.4,238.9z M670.5,244L670.5,244L670.5,244z
				 M672.3,243.7l-0.2-0.2c-0.2,0.1-0.3,0.1-0.7,0.2c0.2,0.2,0.4,0.3,0.4,0.3C671.9,244,672,243.9,672.3,243.7z M671.9,241.2v-0.6
				c0,0.1-0.1,0.3-0.2,0.4C671.7,241.1,671.8,241.2,671.9,241.2z M672.5,238.9c0,0.1,0.1,0.2,0.1,0.2c-0.1,0.2-0.2,0.4-0.2,0.7h-0.2
				c0-0.1-0.1-0.3-0.1-0.3C672.2,239.2,672.4,239,672.5,238.9z M672.7,231.4c0,0.1,0.1,0.3,0.2,0.6h0.2c0-0.1,0.1-0.2,0.1-0.3
				c0-0.4,0.1-0.9,0.1-1.2l0.3-0.7c0-0.1-0.1-0.2-0.1-0.3c-0.1,0-0.2,0-0.3,0.1L672.7,231.4z M673.7,227.8c0.1,0.3,0.1,0.6,0.1,0.8
				l0.3-0.6c0.1-0.1,0.1-0.2,0.1-0.3l0.3-2.5c0-0.4,0.1-0.9,0.1-1.2c-0.1,0.3-0.3,0.8-0.3,1.1C674,226,673.9,227,673.7,227.8z
				 M676,235.3c0,0-0.3-0.2-0.4-0.1c-0.2,0.1-0.3,0.3-0.4,0.6l-0.3,0.9c-0.2,0.8-0.6,1.4-0.7,2.2c-0.1,0.1,0.1,0.2,0.1,0.4
				c0.2-0.1,0.3-0.1,0.4-0.2l0.7-1.8c0.2-0.4,0.3-0.9,0.4-1.4C675.9,235.8,676,235.5,676,235.3z M676.5,234.1
				c-0.1-0.1-0.1-0.1-0.1-0.2l-0.3,0.2c0.1-0.2,0.1-0.4,0.1-0.7c0.2-0.8,0.3-1.5,0.4-2.3c-0.3,1-0.6,2.1-0.9,3.1
				c-0.1,0.2-0.1,0.4-0.1,0.6c0.1-0.1,0.2-0.3,0.4-0.4v-0.2L676.5,234.1L676.5,234.1z M676,224.9C676,225,676.1,225,676,224.9
				c0.2-0.1,0.3-0.3,0.3-0.5c0-0.2-0.1-0.3-0.1-0.4c-0.1,0.1-0.2,0.2-0.2,0.4V224.9z"/>
			<path class="st0" d="M720.5,233.8c-0.2,1.9-0.1,3.7-0.4,5.3c-0.3,1.7-1.1,2.8-2.3,3.8c-0.1,0-0.3,0.2-0.3,0.6
				c-0.3,0.6-0.7,1.2-1.1,1.8c-0.9,1.2-2.1,2.3-3.3,3.2l-1.9,1.5c-0.3,0.1-0.3,0.3-0.3,0.4c0.2,0,0.6,0.1,0.7,0.1
				c0.3,0,0.7-0.1,0.9-0.1c-0.2,0.2-0.3,0.7-0.7,0.8l-1.3,0.9l-0.4,0.9l-1.1,1l-0.3,0.3c0.1,0.1,0.4,0.1,0.6,0.1
				c0.4-0.2,0.9-0.3,1.2-0.6h0.3v0.2l-0.3,0.3c-1.2,1.1-2.7,2.3-4.1,3.1c-1.7,1.2-3.5,1.9-5.5,2.7c-0.6,0.3-1.3,0.1-2.1,0h-0.8
				c-1.8,0.2-3.5-0.3-5.1-0.8c-2.2-0.4-3.4-2-4.9-3.2c-1-0.7-2-1.7-2.9-2.4c-1.4-1.2-2-2.7-2.4-4c-1.1-2.4-1.2-4.8-0.8-7.1
				c0.3-2.3,1-4.4,1.3-6.8l0,0l2-5l1.7-3.5c0.2-0.3,0.6-0.4,0.6-0.8c0.2-0.3,0.3-0.7,0.4-1c0.1-0.1,0.1-0.3,0.2-0.4l1.3-1.8
				c0.2-0.1,0.2-0.6,0.4-0.7l0.4-0.8c0.6-0.4,1-1,1.4-1.7l-0.4-0.1c0.2-0.2,0.4-0.7,0.7-0.7c0.7,0.1,1-0.6,1.3-0.9l1.3-1.8
				c0.2-0.2,0.9-0.4,0.4-1c0-0.1,0.3-0.3,0.4-0.4c2.8-2.7,5.5-5.3,9.2-7.1c1.4-0.9,3.3-1.2,5.1-1.7c2.1-0.8,3.9,0.1,5.7,1.2l1.1,0.3
				c0.9,0.3,1.5,0.7,1.8,1.5c0.2,0.2,0.4,0.2,0.8,0.4c0.8,0.6,1.2,1.2,1.8,2.4c1,2.9-0.7,4.9-1.2,7.3l-0.4,1.4
				c-0.8,1.4-1.3,3.1-2,4.4c-0.9,1.8-1.8,3.6-3,4.9c-1.2,1.3-2.8,2.3-4.1,3c-1.3,0.8-2.8,1-4.2,1.3c-1.4,0.2-3,0.3-4.4,0.3
				c-0.9,0-1.8-0.2-2.5-0.3c-1.9-0.4-3.7-0.7-5.5-1.2c-0.8-0.1-1.1,0.1-1.4,0.7c-0.4,1.5-1.1,3-1.7,4.3l-1,3.5
				c-0.1,0.4-0.4,0.8-0.7,1.3c0,0.1-0.1,0.2-0.1,0.3l-0.2,2.9c-0.3,2.8-0.3,5.7,1.9,8.2c0.8,1,2,1.7,3.4,1.5
				c3.5-0.2,6.1-1.4,8.9-3.1c0.8-0.4,1.5-0.9,2.3-1.2c0.4-0.3,1.1-0.3,1.8-0.6c1.4-0.7,3-1.4,4.3-2.2c1.3-0.9,2.4-1.8,3.7-2.7
				c0.2-0.2,0.3-0.8,0.6-1.1c-0.4,0.1-0.8,0.3-1,0.7l-3.8,2.3c-1,0.8-2.2,1.4-3.4,2.3c-0.2,0-0.3,0-0.4,0.1l0.2-0.6
				c1.2-0.7,2.4-1.3,3.5-2.2c0.6-0.7,1.5-1.2,2-2.2c0.4-1.1,1.5-1.8,2.2-2.4c2.2-2.3,3.5-5,4.9-7.9l0.8-2.3c0.1-0.1,0.2-0.2,0.3-0.4
				C720,233.3,720.5,233.6,720.5,233.8z M685.8,240.2L685.8,240.2C685.9,240.3,685.9,240.2,685.8,240.2c-0.1-0.8-0.1-1.3,0.4-1.8
				v-0.2c-0.2-1.4,1.7-1.7,1.2-3c-0.1-0.1,0.1-0.1,0.1-0.1l0.4-0.8c-0.2,0-0.3-0.1-0.6-0.1h-0.2c0.3-0.2,1.1-0.4,0.4-1.1h0.2
				c0.4,0.2,0.9-0.1,0.9-0.4c0-0.3-0.1-0.6-0.6-0.9c0-0.4,0-0.7-0.2-1l-0.4,0.6c-0.6,1.4-1.3,2.9-1.9,4.4c-0.8,2.5-1.3,5.1-2.1,7.8
				c-0.1,1.1-0.1,2.4-0.2,3.6v0.4c0.1,0,0.4,0,0.6-0.1l0.1-0.6c0.2-1.2,0.2-2.4,0.6-3.4C684.7,242.4,685.3,241.3,685.8,240.2z
				 M687.8,239.8c0,0-0.2,0.1-0.2,0.2c-0.2,1.1-0.9,2.3-1,3.5c-0.2,0.3-0.1,1-0.4,1.2c-0.9,0.8-0.6,1.9-0.7,2.8
				c-0.4,0.6-0.2,1.2-0.4,2c0,0.1-0.1,0.2-0.1,0.4h0.3c0.3-0.1,0.7-0.1,0.7-0.3c0.2-0.8,0.2-1.5,0.3-2.3c0.2-1.1,0.3-2.3,0.6-3.4
				C687,242.3,687.6,241,687.8,239.8z M686,251.5c-0.2-0.1-0.6-0.2-0.7-0.1c0,0,0,0.1-0.1,0.2c0,0.1,0.1,0.2,0.1,0.2
				C685.4,251.8,685.7,251.7,686,251.5z M688,239L688,239c-0.2,0.1-0.1,0.5-0.2,0.7L688,239z M689.3,230.7c0.6,0,0.8-0.3,0.7-1
				c0.7-0.1,0.4-0.3,0-0.8l0.7-1.1c0.8,0.1,0.9-0.4,1.1-0.9l0.1-0.1c0.6-0.1,0.8-0.8,0.6-1.3h-0.6c0.3-0.2,0.7-0.6,1-0.7h0.2
				c-0.1,0,0,0.1-0.1,0.2h0.1v-0.2c0,0,0.4-0.1,0.4-0.2c-0.3-0.4,0.2-0.6,0.4-0.9v0.1l0.2-0.2l0.4-0.7l0.2-0.4c0.1,0,0-0.1,0-0.1
				v0.1l-0.6-0.3h-0.2l0.1-0.1c0.2-0.1,0.4-0.3,0.7-0.3c0.9,0.1,1.2-0.7,1.9-1.2c0.1-0.3-0.4-1.1,0.4-0.8c0-0.2,0.1-0.3,0.1-0.4
				c-0.1-0.1-0.1-0.3,0-0.6l0.6-0.7l0.1-0.1h-0.2c-0.7,0.4-1.4,0.9-2,1.5c-0.7,0.6-1.1,1.4-1.7,2.1c-2.1,2.5-4,5-5.3,7.9
				C688.3,230.2,688.5,230.7,689.3,230.7z M689.5,229.7h0.4c0,0.1,0,0.2-0.1,0.2l-0.2,0.3L689.5,229.7z M690.5,227.5v0.3
				c-0.1-0.1-0.1-0.1-0.2-0.1C690.4,227.7,690.4,227.6,690.5,227.5z M690.6,227.8L690.6,227.8L690.6,227.8z M692.9,218.4h-0.2
				c0-0.1,0-0.2,0.1-0.2l1.2-1.5c0,0,0.1,0,0.1-0.1v0.2C693.8,217.2,693.2,217.8,692.9,218.4z M700.6,221.4l-3.9,4.7
				c-1.3,1.5-2.4,3.2-3.4,4.8c-0.1,0.6,0,0.6,0.3,0.6h1.8c0.1,0.1,0.2,0.1,0.4,0.2c-0.1,0-0.2,0-0.2,0.1c0,0,0.1-0.1,0.2-0.1
				c0.3-0.1,0.9-0.1,1.2-0.1c0.4-0.1,0.7-0.4,1-0.4c1.5-0.1,3.2-0.6,4.7-1.1c3.1-1.3,5.8-3.2,7.6-5.9c1.2-2.2,2.4-4.3,3.2-6.9
				c0.4-1.5,0.7-3.2,1.1-4.5c0.1-0.2,0-0.4-0.1-0.6l-0.4,0.1c-0.6,0.2-1.2,0.6-1.8,0.7c-1.9,0.7-3.5,1.4-5,2.7
				C704.8,217.3,702.7,219.2,700.6,221.4z M694.1,223.7c-0.1,0-0.2,0.1-0.2,0.1l-0.1-0.1H694.1z M695.2,221.3L695.2,221.3l0.1-0.3
				L695.2,221.3C695.2,221.1,695.2,221.3,695.2,221.3z M711.7,253.3l-0.6,0.3v-0.2c0-0.1,0.1-0.2,0.2-0.2
				C711.4,253.2,711.7,253.2,711.7,253.3z M716.5,246.5c0.1-0.1,0.3-0.1,0.6-0.3l-0.1,0.7c-0.9,0.9-1.5,1.7-2.2,2.5
				c-0.3,0.3-1,0.3-1.5,0.4h-0.1c0.1,0,0.1-0.1,0.1-0.2C714.2,248.4,715.2,247.4,716.5,246.5z M715.5,245c-0.1,0-0.2,0.1-0.2,0.1
				c0,0.2,0.1,0.2,0.1,0.3L715.5,245L715.5,245L715.5,245z M718.9,243.2c0.2,0.2,0.2,0.3,0.2,0.3c-0.3,0.9-0.8,1.5-1.7,2.1
				c0-0.2,0-0.7,0.1-0.8l1.1-1.3C718.8,243.4,719,243.4,718.9,243.2z"/>
			<path class="st0" d="M767.4,201.8c-1.7,1.1-3.5,1.2-5.3,1.7l-4.9,1.1l-4,0.9c-1.5,0.4-3.1,0.8-4.4,1.3c-0.6,0.1-1.1,0.6-1.3,1
				c-0.6,1.1-0.8,2.2-1.2,3.3l-1,2.1c-1.3,3.2-2.7,6.3-4,9.5l-2.1,4.2l-3.9,9c-0.4,1-0.8,2.1-1.2,3.2c-1.2,3.8-2.5,7.6-3.8,11.4
				c-0.2,0.7-0.2,1.3-0.3,1.9c0.6-0.3,1.1-0.7,1.7-1.1c1.8-1.5,3.6-3.2,5.3-4.8c1.2-1.2,2.3-2.4,3.4-3.6h0.6c0.3-1.1,0.4-1,1.4-1.4
				c0.9-0.3,1.9-0.8,2.1-1.9c0-0.3,0.4-0.6,0.7-0.9c0.6,0.9,0.6,1.5-0.2,2.4c-0.4,0.6-0.7,1.4-1.1,2.1c-0.2,0.3-0.6,0.7-0.9,1
				c-0.1,0.1,0,0.3-0.1,0.4h0.4c0.1,0,0.2,0,0.3-0.1c0,0.2,0.1,0.3,0,0.4c-0.2,0.4-0.4,0.9-0.8,1.1c-1.1,0.9-1.4,2.1-1.5,3.4
				c0,0.4-0.2,0.8-0.3,1.1c0,0.2-0.2,0.4-0.2,0.6c0.6,1.4-0.9,2-1.4,2.9c-0.6,1.2-1.4,2.1-2.5,3c-2.1,1.7-4.1,3.4-6.2,5.1
				c-0.4,0.3-0.8,0.8-1.2,1.2c-1.9,1.4-4.2,0.9-5.5-1.2c-0.4-0.8-1.1-1.5-1.2-2.5c0-0.2-0.2-0.4-0.4-0.6c-0.8-0.2-1-0.9-0.9-1.5
				c0-1.1,0-2.2,0.1-3.3c0.2-2.5,0.7-5,1.7-7.3l0.3,0.7c0.1-0.3,0.3-0.6,0.3-0.8c0.7-2,1.2-3.8,1.8-5.8c0.2-0.8,1-1.7,0.2-2.5
				c-0.1,0,0-0.2,0-0.2c1.7-0.9,1.5-2.7,2.2-3.9c0.9-1.9,1.7-3.8,2.3-5.6c0.2-0.4,0.1-0.9,0.2-1.3c0-0.1-0.1-0.2-0.1-0.3
				c1.9-1.9,2.4-4.5,3.5-6.9c0.7-1.4,0.9-3.1,1.7-4.4c0.3-0.6,0.2-1.5,1.1-1.8c0.2,0,0.2-0.4,0.2-0.6c0-0.4,0-0.8,0.4-1.2
				c0.3-0.2,0.1-1,0.1-1.5c0-0.1-0.7-0.1-0.9-0.1c-1.2-0.1-2.3-0.3-3.5-0.3c-2.2-0.1-3.6-1.8-5.1-2.9c-0.9-0.6-1.3-1.9-1.8-3
				c-0.2-0.7,0.9-1.9,1.5-2c2.3-0.4,4.5-0.7,6.9-1.1c1.5-0.3,3.1-0.8,4.5-1.2c0.8-0.1,1.5-0.2,2.2-0.6c0.6-0.2,1.1-0.7,1.4-1.2
				l3.9-8.2c0.9-1.8,1.7-3.4,2.4-5.1c0.1-0.2,0.2-0.4,0.2-0.7c0.2-1.2,1.3-1.8,2.3-1.1c1.1,0.7,1.8,1.4,1.7,2.8
				c0,0.4,0.2,0.8,0.2,1.2c0.2,1.9,0.6,3.7,0.6,5.7c0,0.8-0.6,1.7-0.9,2.5c-0.1,0.3-0.1,0.7-0.2,1.1l1.1,0.1
				c1.9-0.2,3.7-0.6,5.4-0.7c1.5-0.1,3.1,0.1,4.4,0.1c0.3,0.1,0.7,0.1,1,0.1c1.4,0,2.3,1.1,3.1,2c0.2,0.1,0,0.8-0.2,1
				c-0.7,0.6-0.7,1,0.2,1.4C768.4,200.8,768.3,201.2,767.4,201.8z M723.5,244.5c-0.1-0.3-0.2-0.4-0.1-0.4c0.1-0.4,0.3-0.8,0.6-1.2
				c0,0.1,0.1,0.2,0,0.3C723.9,243.5,723.8,244,723.5,244.5z M726.9,244.3l-0.3-1c-0.1,0-0.2,0-0.2-0.1c0,0.1-0.1,0.1-0.1,0.2
				c0.1,0.6-0.2,0.9-0.8,0.9c-0.1,0-0.2,0.1-0.2,0.2l0.1,0.1L726.9,244.3z M727.4,240.3c-0.1-0.1-0.2-0.2-0.3-0.2l-0.9-0.4l-0.3,0.9
				c-0.1,0,0,0.1,0.1,0.1c0.2-0.7,0.6-0.1,0.9-0.1C727.1,240.6,727.2,240.4,727.4,240.3z M727.8,236.5l-0.3-0.2l-0.3,0.7
				c0,0,0,0.2,0.1,0.4C727.4,237.1,727.6,236.9,727.8,236.5z M728.1,235c0.1-0.3,0.3-0.6,0.4-0.9V234c-0.1,0.3-0.3,0.7-0.6,1H728.1z
				 M729,237.1c-0.1-0.1-0.2-0.2-0.2-0.3c-0.1,0.1-0.2,0.2-0.2,0.3s0.1,0.2,0.3,0.6C728.9,237.3,729,237.2,729,237.1z M729.1,232.9
				L729.1,232.9C729,232.9,729,232.9,729.1,232.9z M730.1,231.7L730.1,231.7c0.5-0.2,0-0.5-0.1-0.7c-0.1-0.1-0.4,0-0.4,0.1
				c-0.2,0.4-0.2,1-0.3,1.4C729.4,232.2,729.8,232,730.1,231.7z M730.3,233.4c0,0.1-0.1,0.1-0.2,0.2l-0.3,0.4
				c-0.1,0.1-0.1,0.3-0.2,0.4c0.2,0,0.6,0,0.6-0.1C730.2,234.1,730.3,233.8,730.3,233.4z M730.6,225.8l-0.3,0.3v-0.3
				c0-0.1,0.1-0.1,0.1-0.2C730.5,225.6,730.6,225.7,730.6,225.8z M733.2,227.2c-0.1-0.1-0.3-0.2-0.6-0.1c-0.7,0.2-1.2,0.6-1.9,0.9
				c-0.1,0.1-0.1,0.3-0.2,0.6v0.3c0,0-0.1,0.1-0.1,0.2h0.1c0-0.1,0.1-0.2,0.1-0.2c0-0.1,0-0.2-0.1-0.3l2.2-0.9
				c0,0.1-0.1,0.1-0.1,0.2v0.3c0-0.2,0.1-0.3,0.1-0.6l-0.1-0.1l0.1-0.1C732.8,227.4,733.1,227.2,733.2,227.2z M731.3,227
				C731.3,227,731.3,227.1,731.3,227c0.2-0.2,0.3-0.5,0.3-0.8L731.3,227z M733.9,224.8c-0.2-0.2-0.3-0.3-0.4-0.3
				c-0.2,0-0.3,0-0.4,0.1c0,0.1,0.1,0.2,0.2,0.2H733.9z M733.3,221.9c0,0,0,0.2,0.1,0.3l0.3-0.3c0,0-0.1-0.1-0.1-0.2L733.3,221.9z
				 M735.2,221.1l-0.3-0.2c-0.2,0.1-0.3,0.1-0.4,0.2c0,0.1,0.1,0.2,0.1,0.4L735.2,221.1z M735.8,207.9c-0.1-0.1-0.1-0.3-0.1-0.4
				c0,0.1-0.1,0.3-0.1,0.6C735.7,207.9,735.8,207.9,735.8,207.9z M737.7,207.5c0-0.1-0.1-0.2-0.2-0.2c-0.2,0-0.4,0.1-0.8,0.1
				c0,0,0,0.2-0.1,0.3C737,207.6,737.3,207.6,737.7,207.5z M738.7,207l-0.7,0.4v0.1c0.2,0,0.4-0.1,0.7-0.2V207z M739.8,201.2
				c0,0.1,0.1,0.1,0.1,0.2l0.3,0.3c-0.1-0.3-0.1-0.6-0.2-0.6L739.8,201.2L739.8,201.2z M740.2,204.3c-0.1,0-0.1-0.1-0.2-0.1
				l-0.1,0.1v0.1C739.9,204.4,740,204.4,740.2,204.3z M740.3,206.7L740.3,206.7C740.3,206.7,740.2,206.8,740.3,206.7
				c-0.1,0.2,0,0.2,0,0.2C740.3,206.9,740.4,206.7,740.3,206.7z M750.9,202.1c0.2,0,0.4-0.1,0.7-0.2v-0.2h-0.8
				c-0.3,0-0.7,0.1-1.1,0.2l-2.9,0.7h-1.2c-1,0.1-1.9,0.2-2.9,0.4c-0.4,0-0.9,0.2-1.2,0.4c-0.4,0.1-0.8,0.3-1.1,0.6
				c0.3,0,0.9,0.1,1.2,0c1.2-0.2,2.4-0.6,3.5-0.8c0.6-0.2,1.3,0,1.5-0.7c0.3,0.3,0.7,0.4,1.2,0.3c0.6-0.2,1.2-0.3,1.8-0.4
				L750.9,202.1z M741.8,200.7c0,0.2,0.1,0.7,0.2,0.7c0.6,0,1-0.1,1.5-0.1v-0.7c0-0.1-0.2-0.2-0.3-0.3l-0.6,0.6
				C742.4,200.7,742.2,200.1,741.8,200.7z M742.7,200.9L742.7,200.9C742.7,200.8,742.7,200.9,742.7,200.9L742.7,200.9z M743.2,200
				c0.1,0,0.2,0,0.3-0.1c0.1,0,0.1-0.1,0.2-0.1h-0.2C743.4,199.8,743.3,199.9,743.2,200L743.2,200z M743.7,206.5h-0.3
				c0,0.1,0,0.1-0.1,0.2h0.4L743.7,206.5L743.7,206.5z M744.2,199.8l-0.8,0.4c0.2,0.1,0.6,0.2,0.9,0.6c0.4,0.4,0.7,0.1,0.9-0.2v0.1
				c0.6-0.1,1.2-0.2,1.7-0.4c0.7-0.2,1.3-0.6,2-0.1c0.1,0,0.2,0,0.3-0.1c0.6-0.8,1.3-0.3,2.1-0.3c0.1,0,0.3-0.1,0.4-0.2
				c-0.1-0.1-0.2-0.4-0.3-0.4c-0.8,0-1.5,0.1-2.2,0.2c-0.4-0.7-1-0.1-1.5-0.1c0.6,0,1,0,1.5,0.1c-0.8,0.6-1.8,0.2-2.5,0.6
				c0.1-0.3-0.1-0.3-0.3-0.4c-0.8-0.1-1.1,1-1.9,0.3C744.4,199.7,744.3,199.8,744.2,199.8z M749,205.5c-0.3-0.2-0.4-0.9-1-0.3
				c-0.2,0.1-0.4,0.1-0.7,0.2c0.1,0,0.2,0.1,0.4,0.1l-0.4,0.3c-0.1,0-0.2,0-0.3-0.1c-0.7-0.4-1.3,0.2-2.1,0.1
				c-0.1,0-0.3,0.2-0.6,0.4l0.2,0.2l2.8-0.7c0.6-0.1,1-0.1,1.5-0.1L749,205.5z M745.7,238.4c-0.2,0-0.6,0.1-0.9,0.1l0.6-0.3
				c0,0-0.1-0.1-0.1-0.2l0.2,0.2C745.6,238.3,745.6,238.4,745.7,238.4z M745.1,200.3v0.2C745.1,200.5,745.1,200.4,745.1,200.3
				L745.1,200.3z M746.3,199.7c0.1,0,0.2,0.1,0.3,0.1L746.3,199.7C746.4,199.8,746.4,199.7,746.3,199.7z M748.3,205.5h-0.4
				c0-0.1,0.1-0.2,0.2-0.3C748.1,205.3,748.3,205.4,748.3,205.5z M752.5,202.8c-0.2,0.1-0.3,0.1-0.4,0.1c-0.2,0.1-0.4,0.1-0.7,0.1
				v0.1c0.2-0.1,0.4-0.1,0.7-0.2c0.1,0.1,0.2,0.1,0.4,0.1V202.8z M752.5,199.3l-0.3-0.2C752.3,199.2,752.4,199.3,752.5,199.3
				C752.3,199.3,752.5,199.3,752.5,199.3z M753.3,198.2l-0.4,0.1l0.1,0.1L753.3,198.2z"/>
			<path class="st0" d="M786.5,210.3c-0.9,0.1-1.9,0.3-2.8,0.3c-2.2,0-3.8,1-5.5,2.1c-2.1,1.1-3.7,2.8-5.6,4.2
				c-3.1,2.8-5.7,5.7-8.5,8.6l-0.6,0.7c-2.8,3.8-5.5,7.3-8.1,11.1c-2.1,3.4-5.8,10.6-6.9,13.8c-0.1,0.3-0.1,0.7-0.2,1l0.2,0.2
				c0.1,0.2,0.3,0.2,0.4,0.1c1.2-0.9,2.3-1.9,3.2-2.9c1.2-1.3,2.4-2.5,3.4-3.8l3.1-3.5c1.2-1.2,2.3-2.5,3.5-3.6
				c0.2-0.4,0.7-0.7,1.2-0.8c-0.1,1.2-0.7,2.1-1.4,2.9l-0.6,0.7c0.7-0.2,1.8,0,2-0.4c0.2-0.4,0.8-1,1.1-1.7c0.8-1.1,1.9-2.2,2.7-3.3
				c0.9-1,1.4-2.4,2.3-3.2c0.2-0.2,0.6-0.3,0.8,0c0.1,0.3,0.1,0.6-0.1,0.8c-0.4,0.3-0.7,0.8-0.9,1.1c-0.3,0.4-0.9,0.9-1,1.2
				c-0.9,3.2-4.5,4.5-5.1,6.8c0,0.1-1.4-0.7-1.9-0.9c-0.4,0.7-0.8,1.4-1.3,2.1c-0.1,0.1-0.2,0.3-0.2,0.6l0.2,0.4h0.3
				c0.4-0.2,0.7-0.6,0.8-0.9c0-0.2,0.2-0.3,0.4-0.6c0.2-0.2,0.8-0.1,0.9,0.1c0,0.2,0,0.4-0.1,0.6c0,0.2-0.3,0.4-0.6,0.8
				c-0.7,0.7-1.1,1.5-1.3,2.7c0,0.2,0.2,0.4,0.3,0.6c0,0.1,0.3,0.1,0.4,0c1.8-2,3.5-3.7,5.1-5.9c1.7-2.2,3.3-4.3,5.1-6.4
				c1-1.3,1.4-2.9,2-4.3c0-0.2-0.1-0.6-0.2-0.9c-0.1-0.3-0.1-0.8,0.1-1.2c0.3-0.3,0.4-0.9,0.7-1.4c0.1-0.3,0.2-1-0.1-1.4
				c-0.9,0.4-1.4,1.1-2,1.9c-0.7,1-1.5,2-2.4,3c-0.2,0.2-0.6,0.3-1,0.2c0-0.2,0-0.6,0.2-0.9c0.4-0.4,0.8-1.1,1.3-1.7
				c1.1-1,1.9-2.2,2.5-3.5l1-1.1c0.7-0.9,1.2-1.5,1.5-2.4c0.2-0.3,0.7-0.6,1-0.3c0.6,0.1,1.1,0.4,1.5,0.4c1.8,0.1,3.2,1.3,4.5,1.8
				c0.6,0.1,0.9,0.8,0.7,1.2l-4.7,14.2c-1.3,4-2.4,8.2-3.2,12.3c-0.1,0.7-0.1,1.5-0.2,2.1v2.3c-0.1,0.6-0.8,1.1-1.3,1.2
				c-0.4,0.1-0.9,0.1-1.2,0.1c-0.4,0.1-0.8,0-1.2-0.3c-0.8-0.4-1.5-1.1-2.1-1.7c-0.6-0.9-0.9-1.8-1.4-2.5c-0.4-0.8-0.7-1.7-0.1-2.3
				c0.6-1,0.7-2.1,1.4-2.9c0.1-0.2,0.1-0.7,0.1-1c-0.2-0.4-0.1-1.1,0.2-1.5c1.1-1.3,1.4-3.1,2-4.7c0.1-0.3,0.3-0.7,0.2-1l-0.2-0.1
				c-0.4,0.3-0.9,0.6-1.1,0.9c-1,1.2-2.1,2.4-3.2,3.8c-1.4,2-3.1,3.8-4.5,5.8l-3.7,4.5c-1,1.3-2.3,2.4-3.5,3.5c-2.3,2.2-5,3-8,2.3
				c-0.4,0-0.9-0.1-1.1-0.4c-1.9-1.8-3.4-3.6-3.8-6.2c0-0.2-0.1-0.3-0.1-0.6c0.1-1.9,0.1-3.6,0.7-5.2c0.3-0.8,0.4-1.7,0.9-2.4
				c0.2-0.4,0.7-0.3,1.1-0.4l0.9-2.8c0.1-0.1,0.2-0.2,0.4-0.3c0.9-0.1,1-0.9,1.2-1.5c0-0.2-0.2-0.3-0.6-0.2c-0.3,0-0.6-0.3-0.4-0.7
				l1.1-1.9c0.2-0.6,0.8-0.9,1.5-0.8c0.2,0,0.6-0.3,0.7-0.6c0.3-0.7,0.7-1.5,1-2.3c0.8-0.4,1.2-0.9,1.3-1.8c0.4-0.2,0.7-0.8,0.9-1.1
				c0.1-0.1,0.1-0.2,0-0.3c0-0.3-0.2-0.3-0.4-0.1c-0.1,0.1-0.3,0.1-0.4,0.1c0.1-0.3,0.1-0.6,0.1-0.7c1.7-2.4,3.2-4.8,5-6.9
				c0.9-0.9,1.9-1.7,2.3-2.9c0.1-0.2,0.2-0.4,0.4-0.6c0.9-0.6,1.2-1.5,1.9-2.4c1-0.9,2-1.9,2.9-3c0.6-0.7,0.8-1.7,1.7-2.1
				c1.1-2,2.8-3.2,4.3-4.4c2.4-2,5-3.6,7.9-5c2.5,1.2,4.9,2.3,7.2,3.6c0.8,0.4,1.5,0.8,2,1.5C787.6,208.7,787.4,210.1,786.5,210.3z
				 M750.1,232.9v1.1c-0.1,0-0.2-0.1-0.2-0.1C749.3,233.4,749.4,233.3,750.1,232.9z M750.2,232.8c0.1-0.2,0.1-0.2,0.3-0.3
				C750.5,232.6,750.4,232.8,750.2,232.8z M751.5,231v1.3h-0.7v-0.5C750.8,231.3,751,231.1,751.5,231z M763.3,237.8
				c0.1-0.2,0.1-0.3,0.3-0.4C763.7,237.5,763.4,237.7,763.3,237.8z M767.2,232.3c0.3-0.4,0.7-0.7,1.1-0.7c-0.1,0.3,0,0.7-0.2,0.9
				c-1,1.5-2,3.1-3.4,4.2c-0.2,0.2-0.4,0.3-0.8,0.3c0-0.8,0.3-1.2,0.8-1.8C765.8,234.4,766.5,233.3,767.2,232.3z M769.5,235.1
				c0.2-0.2,0.4-0.3,0.7-0.3l0.2,0.3c-0.1,0.3-0.3,0.7-0.6,0.6c-0.1,0-0.3-0.1-0.4-0.2C769.4,235.3,769.5,235.1,769.5,235.1z
				 M771.5,231.7c-0.1-0.2-0.2-0.3-0.2-0.6c0-0.2,0-0.4,0.1-0.6l0.4-0.3c0.1,0.3,0.2,0.7,0.2,1C772.2,231.3,771.6,231.8,771.5,231.7
				z"/>
		</g>
		<g>
			<g>
				<g>
					<g>
						<g>
							<g>
								<g>
									<path class="st1" d="M190.6,210.7c8.3-2.6,14-8,14-14.4c0-8.8-11.1-16-24.9-16c-9.3,0-17.4,3.3-21.6,8.1l-20.3-13.8
										l-20.3,13.9c-4.2-4.8-12.3-8.1-21.6-8.1c-13.7,0-24.9,7.1-24.9,16c0,6.3,5.7,11.7,14,14.4L62,226.5l20.4,14
										c4.2-4.8,12.3-8,21.5-8c13.7,0,24.9,7.1,24.9,16c0,6.3-5.6,11.7-13.9,14.3l9.9,6.7l13.1,9l13.3-9.2l9.6-6.6
										c-8.2-2.6-13.9-8-13.9-14.3c0-8.8,11.1-16,24.9-16c9.2,0,17.3,3.3,21.5,8l20.4-14L190.6,210.7z M137.7,263.5
										c-1.4,0-3.9-1.5-3.9-3.5c0-2,2.8-4.9,4.1-4.9s3.8,2.9,3.8,4.7S139.1,263.5,137.7,263.5z"/>
									<g>
										<g>
											<path class="st1" d="M120.8,244.9c0,3.4-2.7,6-6,6c-3.4,0-6-2.7-6-6c0-3.4,2.7-6,6-6C118,238.9,120.8,241.6,120.8,244.9z
												"/>
										</g>
										<g>
											<path class="st1" d="M166.9,244.9c0,3.4-2.7,6-6,6c-3.4,0-6-2.7-6-6c0-3.4,2.7-6,6-6S166.9,241.6,166.9,244.9z"/>
										</g>
									</g>
								</g>
							</g>
						</g>
					</g>
					<g>
						<path class="st1" d="M267.4,232.5c2-2.2,4-4.3,6.1-6.7c2.1-2.4,4.1-4.6,6.1-6.9s3.8-4.4,5.6-6.5c1.8-2.1,3.3-3.8,4.5-5.3h23.9
							c-4.7,5.4-9.4,10.7-13.9,15.7c-4.5,4.9-9.5,10.2-14.9,15.4c2.7,2.5,5.5,5.3,8.4,8.7c2.9,3.4,5.6,6.9,8.4,10.5
							c2.7,3.6,5.1,7.2,7.4,10.8c2.3,3.6,4.1,6.9,5.6,9.9h-23.1c-1.5-2.4-3.1-4.9-4.9-7.8c-1.9-2.9-3.7-5.7-5.8-8.5
							c-2.1-2.9-4.2-5.5-6.5-8.2c-2.3-2.6-4.5-4.8-6.8-6.6v31.1h-20.1V176.5l20.1-3.3L267.4,232.5L267.4,232.5z"/>
						<path class="st1" d="M379.5,275.5c-3.5,1-7.8,1.9-13.2,2.8c-5.4,0.9-11,1.3-17,1.3c-6,0-11-0.8-15-2.5c-4-1.6-7.2-3.8-9.5-6.8
							c-2.4-3-4-6.4-5-10.5c-1-4-1.5-8.5-1.5-13.3v-39.5h20V244c0,6.5,0.9,11.1,2.6,14c1.7,2.9,4.9,4.3,9.6,4.3c1.5,0,3-0.1,4.5-0.2
							c1.6-0.1,3.1-0.3,4.3-0.5v-54.7h20.1V275.5z"/>
						<g>
							<path class="st2" d="M431.2,237.9c-3.2,3.6-6.3,7.6-9.6,11.6c-3.2,4-6.1,8-8.7,11.7h32c1.2-1.8,2.5-3.6,3.8-5.6
								c2.7-3.7,5.4-7.5,8.4-11.2c3-3.7,5.8-7.4,8.7-10.9c2.9-3.6,5.5-6.8,8-9.7h-30.2c-1.1,1.2-2.3,2.6-3.6,4
								C437.3,230.8,434.4,234.1,431.2,237.9z"/>
							<path class="st1" d="M445,261.2h-32c2.6-3.7,5.5-7.7,8.7-11.7c3.2-4,6.4-7.9,9.6-11.6c3.2-3.6,6.1-7.1,8.9-10.2
								c1.4-1.5,2.6-2.9,3.6-4l0,0v-16.8h-53.4v16.8h30.2c-2.5,2.9-5.1,6.1-8,9.7s-5.8,7.2-8.7,10.9c-3,3.7-5.7,7.5-8.4,11.2
								s-4.9,7.2-6.8,10.5v11.8H442v-11.8C442.9,264.5,443.9,262.8,445,261.2z"/>
							<path class="st3" d="M466.4,261.2c2.6-3.7,5.5-7.7,8.7-11.7c3.2-4,6.4-7.9,9.6-11.6c3.2-3.6,6.1-7.1,8.9-10.2
								c2.8-3.1,4.9-5.5,6.5-7.3v-13.5h-53.4h-3v16.8l0,0h30.2c-2.5,2.9-5,6.1-8,9.7c-2.9,3.6-5.8,7.2-8.7,10.9
								c-3,3.7-5.7,7.5-8.4,11.2c-1.4,2-2.7,3.7-3.8,5.6c-1.1,1.7-2.1,3.3-3,4.8v11.8h5.2h53.4V261h-34.2V261.2z"/>
						</g>
						<polygon class="st3" points="511.1,176.5 511.1,277.9 531.2,277.9 531.2,173.3 						"/>
						<path class="st3" d="M536.3,243c0-6.3,1-11.8,2.9-16.5c2-4.7,4.4-8.7,7.6-11.8c3.2-3.2,6.8-5.5,10.8-7.1
							c4-1.6,8.3-2.5,12.6-2.5c10.1,0,18,3.1,23.9,9.3c5.8,6.1,8.8,15.2,8.8,27.1c0,1.2,0,2.5-0.1,3.8s-0.2,2.7-0.3,3.7h-45.6
							c0.5,4.1,2.4,7.4,5.8,9.9s8,3.6,13.7,3.6c3.6,0,7.3-0.3,10.8-1c3.5-0.7,6.4-1.5,8.7-2.5l2.7,16.3c-1.1,0.5-2.6,1.1-4.3,1.6
							c-1.8,0.5-3.8,1-6,1.4s-4.5,0.8-7.1,1c-2.6,0.3-5,0.4-7.6,0.4c-6.4,0-11.9-1-16.7-2.9c-4.7-1.9-8.7-4.4-11.7-7.8
							c-3.1-3.3-5.4-7.2-6.9-11.6C537,253.1,536.3,248.1,536.3,243z M583.5,235.3c-0.1-1.7-0.4-3.4-0.9-5c-0.5-1.6-1.3-3.1-2.3-4.3
							c-1.1-1.3-2.4-2.3-3.9-3.1s-3.5-1.2-5.8-1.2c-2.3,0-4.1,0.4-5.8,1.2c-1.6,0.8-3,1.8-4,3.1c-1.1,1.3-1.9,2.8-2.5,4.3
							c-0.6,1.7-1,3.4-1.3,5H583.5z"/>
					</g>
				</g>
			</g>
		</g>
	</g>
</g>
<g id="calages" class="st4">
</g>
</svg>
